<?xml version="1.0" encoding="utf-8"?>
<!-- Generated by IcoMoon.io -->
<svg version="1.1" xmlns="http://www.w3.org/2000/svg" xmlns:xlink="http://www.w3.org/1999/xlink" width="560" height="20" viewBox="0 0 560 20">
<svg id="icon-mail" viewBox="0 0 20 20">
<path d="M1.574 5.286c0.488 0.262 7.248 3.894 7.5 4.029s0.578 0.199 0.906 0.199c0.328 0 0.654-0.064 0.906-0.199s7.012-3.767 7.5-4.029c0.489-0.263 0.951-1.286 0.054-1.286h-16.919c-0.897 0-0.435 1.023 0.053 1.286zM18.613 7.489c-0.555 0.289-7.387 3.849-7.727 4.027s-0.578 0.199-0.906 0.199-0.566-0.021-0.906-0.199-7.133-3.739-7.688-4.028c-0.39-0.204-0.386 0.035-0.386 0.219s0 7.293 0 7.293c0 0.42 0.566 1 1 1h16c0.434 0 1-0.58 1-1 0 0 0-7.108 0-7.292s0.004-0.423-0.387-0.219z"></path>
</svg>
<svg id="icon-menu" viewBox="0 0 20 20">
<path d="M16.4 9h-12.8c-0.552 0-0.6 0.447-0.6 1s0.048 1 0.6 1h12.8c0.552 0 0.6-0.447 0.6-1s-0.048-1-0.6-1zM16.4 13h-12.8c-0.552 0-0.6 0.447-0.6 1s0.048 1 0.6 1h12.8c0.552 0 0.6-0.447 0.6-1s-0.048-1-0.6-1zM3.6 7h12.8c0.552 0 0.6-0.447 0.6-1s-0.048-1-0.6-1h-12.8c-0.552 0-0.6 0.447-0.6 1s0.048 1 0.6 1z"></path>
</svg>
<svg id="icon-instagram" viewBox="0 0 20 20">
<path d="M17 1h-14c-1.1 0-2 0.9-2 2v14c0 1.101 0.9 2 2 2h14c1.1 0 2-0.899 2-2v-14c0-1.1-0.9-2-2-2zM9.984 15.523c3.059 0 5.538-2.481 5.538-5.539 0-0.338-0.043-0.664-0.103-0.984h1.581v7.216c0 0.382-0.31 0.69-0.693 0.69h-12.614c-0.383 0-0.693-0.308-0.693-0.69v-7.216h1.549c-0.061 0.32-0.104 0.646-0.104 0.984 0 3.059 2.481 5.539 5.539 5.539zM6.523 9.984c0-1.912 1.55-3.461 3.462-3.461s3.462 1.549 3.462 3.461-1.551 3.462-3.462 3.462c-1.913 0-3.462-1.55-3.462-3.462zM16.307 6h-1.615c-0.382 0-0.692-0.312-0.692-0.692v-1.617c0-0.382 0.31-0.691 0.691-0.691h1.615c0.384 0 0.694 0.309 0.694 0.691v1.616c0 0.381-0.31 0.693-0.693 0.693z"></path>
</svg>
<svg id="icon-linkedin" viewBox="0 0 20 20">
<path d="M5 3c0 1.062-0.71 1.976-2.001 1.976-1.215 0-1.999-0.862-1.999-1.924 0-1.090 0.76-2.052 2-2.052s1.976 0.91 2 2zM1 19v-13h4v13h-4z"></path>
<path d="M7 10.444c0-1.545-0.051-2.836-0.102-3.951h3.594l0.178 1.723h0.076c0.506-0.811 1.746-2 3.822-2 2.532 0 4.432 1.695 4.432 5.342v7.442h-4v-6.861c0-1.594-0.607-2.81-2-2.81-1.062 0-1.594 0.86-1.873 1.569-0.102 0.254-0.127 0.608-0.127 0.963v7.139h-4v-8.556z"></path>
</svg>
<svg id="icon-github" viewBox="0 0 32 32">
<path d="M16 0.395c-8.836 0-16 7.163-16 16 0 7.069 4.585 13.067 10.942 15.182 0.8 0.148 1.094-0.347 1.094-0.77 0-0.381-0.015-1.642-0.022-2.979-4.452 0.968-5.391-1.888-5.391-1.888-0.728-1.849-1.776-2.341-1.776-2.341-1.452-0.993 0.11-0.973 0.11-0.973 1.606 0.113 2.452 1.649 2.452 1.649 1.427 2.446 3.743 1.739 4.656 1.33 0.143-1.034 0.558-1.74 1.016-2.14-3.554-0.404-7.29-1.777-7.29-7.907 0-1.747 0.625-3.174 1.649-4.295-0.166-0.403-0.714-2.030 0.155-4.234 0 0 1.344-0.43 4.401 1.64 1.276-0.355 2.645-0.532 4.005-0.539 1.359 0.006 2.729 0.184 4.008 0.539 3.054-2.070 4.395-1.64 4.395-1.64 0.871 2.204 0.323 3.831 0.157 4.234 1.026 1.12 1.647 2.548 1.647 4.295 0 6.145-3.743 7.498-7.306 7.895 0.574 0.497 1.085 1.47 1.085 2.963 0 2.141-0.019 3.864-0.019 4.391 0 0.426 0.288 0.925 1.099 0.768 6.354-2.118 10.933-8.113 10.933-15.18 0-8.837-7.164-16-16-16z"></path>
</svg>
<svg id="icon-moto" viewBox="0 -76 512 512">
<path d="m437 210c-12.289062 0-23.726562 3.253906-33.972656 8.515625l-20.273438-24.09375c8.988282-5.3125 18.710938-9.398437 28.988282-11.699219 8.378906-1.886718 16.683593-2.578125 25.339843-2.707031 11.179688.085937 22.179688-4.324219 30.410157-12.480469 8.585937-8.496094 13.507812-20.316406 13.507812-34.292968 0-76.824219-64.71875-133.242188-133.050781-133.242188h-16.949219c-8.289062 0-15 6.710938-15 15s6.710938 15 15 15h16.949219c4.46875 0 8.730469.769531 13.050781 1.324219v28.984375c-8.710938.789062-16.914062 3.484375-24.675781 7.097656-.097657-.113281-.222657-.1875-.316407-.300781-12.3125 5.757812-22.925781 14.761719-30.613281 26.292969l-34.144531 51.210937c-2.34375 3.5-6.035156 5.859375-10.210938 6.503906-30.367187 4.667969-56.691406 24.027344-70.515624 52.296875 12.8125 19.148438 20.476562 41.960938 20.476562 66.589844h-31c0-49.628906-40.371094-90-90-90s-90 40.371094-90 90 40.371094 90 90 90c39.058594 0 72.046875-25.15625 84.472656-60h141.527344c8.289062 0 15-6.710938 15-15 0-8.335938.996094-16.847656 2.945312-25.28125 4.085938-17.515625 13.195313-33.457031 25.421876-46.480469l20.246093 24.058594c-10.832031 13.003906-17.613281 29.496094-17.613281 47.703125 0 41.351562 33.648438 75 75 75s75-33.648438 75-75-33.648438-75-75-75zm-347 120c-33.089844 0-60-26.910156-60-60s26.910156-60 60-60 60 26.910156 60 60h-45c-8.277344 0-15-6.722656-15-15 0-8.289062-6.710938-15-15-15s-15 6.710938-15 15c0 24.8125 20.1875 45 45 45h36.65625c-10.40625 17.847656-29.542969 30-51.65625 30zm347 0c-24.8125 0-45-20.1875-45-45 0-8.691406 2.589844-16.742188 6.875-23.632812l26.40625 33.007812c5.214844 6.503906 14.660156 7.484375 21.09375 2.34375 6.460938-5.1875 7.515625-14.617188 2.34375-21.09375l-26.375-32.96875c4.617188-1.605469 9.496094-2.65625 14.65625-2.65625 24.8125 0 45 20.1875 45 45s-20.1875 45-45 45zm0 0"/><path d="m254.734375 115.308594 25.699219-38.550782c8.214844-12.328124 18.988281-22.34375 31.226562-30.121093-16.460937-10.394531-35.4375-16.636719-55.660156-16.636719-35.441406 0-68.179688 18.066406-87.449219 47.039062l23.992188 14.398438c19.273437 11.5625 40.378906 19.304688 62.191406 23.871094zm0 0"/><path d="m177.105469 117.15625-96.257813-57.15625h-65.847656c-8.289062 0-15 6.710938-15 15 0 41.351562 33.648438 75 75 75 30.003906 0 61.128906.652344 94.476562 29.640625.128907-.238281.128907-.507813.273438-.738281 11.636719-18.710938 28.066406-33.21875 46.902344-43.414063-13.636719-4.988281-26.988282-10.800781-39.546875-18.332031zm0 0"/>
</svg>
<svg id="icon-headphones" viewBox="0 0 47 47">
<g>
	<path d="M40.508,25.355h-0.311v-1.58c0.738-0.428,1.238-1.216,1.238-2.13c0-9.888-8.045-17.934-17.935-17.934
		c-9.889,0-17.935,8.046-17.935,17.935c0,0.914,0.5,1.702,1.237,2.131v1.58h-0.31C2.913,25.357,0,28.685,0,32.775v2.477
		c0,4.092,2.913,7.42,6.493,7.42h2.89l0.256,0.256c0.241,0.241,0.558,0.362,0.874,0.362c0.317,0,0.634-0.121,0.875-0.362
		c0.285-0.285,0.382-0.673,0.33-1.044c0.214-0.302,0.342-0.669,0.342-1.067V27.21c0-1.025-0.831-1.855-1.855-1.855H9.277v-1.58
		c0.736-0.428,1.236-1.216,1.236-2.13c0-7.161,5.826-12.987,12.987-12.987s12.986,5.826,12.986,12.987c0,0.914,0.5,1.702,1.236,2.13
		v1.58h-0.928c-1.023,0-1.855,0.83-1.855,1.855v13.605c0,0.397,0.129,0.766,0.342,1.066c-0.051,0.371,0.046,0.758,0.33,1.044
		c0.242,0.241,0.559,0.362,0.875,0.362s0.634-0.121,0.875-0.362l0.256-0.256h2.89c3.58,0,6.493-3.328,6.493-7.42v-2.476
		C47.001,28.685,44.088,25.355,40.508,25.355z"/>
</g>
<g>
</g>
<g>
</g>
<g>
</g>
<g>
</g>
<g>
</g>
<g>
</g>
<g>
</g>
<g>
</g>
<g>
</g>
<g>
</g>
<g>
</g>
<g>
</g>
<g>
</g>
<g>
</g>
<g>
</g>
</svg>
<svg id="icon-ball" viewBox="0 0 77.832 77.832">
<g>
	<path d="M38.916,0C17.458,0,0,17.458,0,38.916c0,2.489,0.245,4.923,0.693,7.284l-0.146,0.175c0.07,0.059,0.138,0.109,0.208,0.167
		c3.555,17.819,19.312,31.29,38.161,31.29c21.458,0,38.916-17.458,38.916-38.916S60.374,0,38.916,0z M72.061,25.249
		c-0.052,12.625-11.312,15.317-16.045,15.888c3.945-13.604,2.821-26.663,1.959-32.572C64.236,12.512,69.199,18.337,72.061,25.249z
		 M54.559,6.658c0.653,3.375,3.119,18.577-1.675,34.318c-9.122-2.418-10.416-9.061-12.143-18.104
		c-1.169-6.126-2.491-12.99-6.694-19.474c1.594-0.217,3.217-0.339,4.869-0.339C44.521,3.059,49.829,4.354,54.559,6.658z
		 M30.764,4.005c4.453,6.291,5.793,13.262,6.973,19.441c1.714,8.979,3.346,17.479,14.175,20.446
		c-0.799,2.201-1.749,4.398-2.877,6.562c-22.46-10.88-36.241-28.358-39.237-32.423C14.786,11.094,22.187,6.007,30.764,4.005z
		 M8.018,20.751c4.195,5.486,17.939,21.856,39.521,32.371c-0.844,1.407-1.773,2.791-2.789,4.147
		c-5.908-2.934-11.457-3.388-16.834-3.826c-7.44-0.607-15.128-1.256-24.354-8.571c-0.326-1.938-0.504-3.926-0.504-5.956
		C3.059,32.29,4.872,26.083,8.018,20.751z M4.647,49.475c8.612,5.83,15.922,6.438,23.021,7.018c5.113,0.417,9.972,0.82,15.12,3.232
		c-4.148,4.854-9.563,9.235-16.591,12.709C15.932,68.525,7.908,60.038,4.647,49.475z M30.319,73.725
		c6.382-3.564,11.38-7.873,15.283-12.574c1.639,0.906,4.851,3.021,5.688,6.066c0.497,1.805,0.046,3.756-1.312,5.803
		c-3.485,1.133-7.201,1.754-11.061,1.754C35.953,74.773,33.074,74.405,30.319,73.725z M54.134,71.374
		c0.507-1.685,0.552-3.351,0.101-4.983c-1.068-3.863-4.598-6.434-6.729-7.677c1.028-1.403,1.967-2.833,2.823-4.284
		c5.354,2.402,11.157,4.416,17.387,5.82C64.193,64.993,59.529,68.834,54.134,71.374z M69.557,57.523
		c-6.373-1.342-12.293-3.354-17.74-5.776c1.27-2.456,2.322-4.952,3.191-7.446c2.686-0.195,10.21-1.199,15.299-6.387
		c1.709-1.742,2.957-3.786,3.758-6.096c0.463,2.295,0.709,4.668,0.709,7.098C74.773,45.725,72.865,52.096,69.557,57.523z"/>
</g>
<g>
</g>
<g>
</g>
<g>
</g>
<g>
</g>
<g>
</g>
<g>
</g>
<g>
</g>
<g>
</g>
<g>
</g>
<g>
</g>
<g>
</g>
<g>
</g>
<g>
</g>
<g>
</g>
<g>
</g>
</svg>
<svg id="icon-ski" viewBox="0 0 512.002 512.002">
<g>
	<g>
		<path d="M507.543,59.391c-3.826-5.553-9.582-9.282-16.211-10.501c-13.68-2.519-26.857,6.565-29.376,20.246
			c-1.261,6.857,1.418,27.28,3.845,42.974l-1.521-0.28c-5.23-0.959-10.245,2.495-11.207,7.723l-14.599,79.327l-0.748-0.138
			c-5.228-0.962-10.245,2.498-11.205,7.725c-0.96,5.228,2.498,10.245,7.726,11.205l15.689,2.889L428.26,338.291
			c-22.002-8.067-47.348-14.603-74.391-19.193l17.279-80.608c0,0,0-0.002,0.001-0.003l5.119-23.843
			c0.009-0.04,0.017-0.081,0.025-0.121l0.127-0.627l12.122-56.532c0.005-0.02,0.012-0.04,0.016-0.061
			c0.004-0.018,0.005-0.036,0.009-0.054L403.62,87.05c1.566-7.303,2.36-14.794,2.36-22.267c0-13.614-2.567-26.917-7.635-39.546
			c-3.387-8.417-11.443-13.856-20.525-13.856c-5.719,0-11.147,2.198-15.282,6.188c-15.281,14.727-25.703,33.472-30.14,54.206
			l-27.296,127.318c-0.026,0.111-0.054,0.22-0.077,0.335l-5.098,23.799c-0.001,0.004-0.001,0.007-0.002,0.011l-18.954,88.401
			c-16.479-0.663-33.434-0.676-49.95-0.042l-6.651-31.022c-0.001-0.007-0.002-0.013-0.003-0.019
			c-0.001-0.007-0.004-0.013-0.005-0.019l-12.244-57.114l-0.006-0.032c-0.011-0.056-0.021-0.11-0.034-0.165l-5.11-23.858
			c-0.022-0.102-0.044-0.198-0.069-0.299L179.604,71.778c-4.438-20.737-14.86-39.481-30.138-54.206
			c-4.138-3.992-9.566-6.191-15.286-6.191c-9.082,0-17.138,5.438-20.529,13.864c-5.064,12.621-7.631,25.924-7.631,39.538
			c0,7.473,0.794,14.964,2.36,22.266l15.053,70.198c0.004,0.018,0.005,0.038,0.009,0.056c0.005,0.021,0.012,0.041,0.016,0.064
			l12.121,56.53l0.127,0.628c0.009,0.04,0.017,0.081,0.025,0.121l5.12,23.848c0,0.002,0.001,0.004,0.001,0.005l17.244,80.447
			c-27.023,4.531-52.379,11.01-74.418,19.022L62.064,220.561l15.689-2.889c5.228-0.96,8.687-5.977,7.726-11.205
			c-0.961-5.228-5.974-8.685-11.205-7.725l-0.748,0.138l-14.599-79.327c-0.962-5.228-5.978-8.684-11.207-7.723l-1.521,0.28
			c2.426-15.696,5.105-36.118,3.845-42.977c-2.519-13.677-15.699-22.761-29.376-20.242c-6.629,1.219-12.386,4.949-16.209,10.5
			c-3.821,5.548-5.254,12.251-4.035,18.875c1.261,6.859,11.041,24.989,18.901,38.791l-1.516,0.279
			c-2.511,0.462-4.734,1.903-6.182,4.004c-1.448,2.102-2.003,4.693-1.54,7.203l14.609,79.331l-0.749,0.138
			c-5.227,0.963-8.684,5.981-7.72,11.208c0.855,4.638,4.901,7.881,9.454,7.881c0.578,0,1.165-0.053,1.755-0.162l15.7-2.891
			l22.32,121.231c-20.123,8.876-36.436,19.022-48.639,30.252c-3.888,1.236-6.706,4.874-6.706,9.171v106.295
			c0,5.314,4.309,9.624,9.624,9.624h471.57c5.315,0,9.624-4.31,9.624-9.624V389.522c0.671-2.063,0.627-4.303-0.132-6.342
			c-0.575-3.604-3.139-6.541-6.541-7.637c-12.031-11.075-28.056-21.096-47.781-29.88l22.391-121.614l15.7,2.891
			c0.59,0.109,1.177,0.162,1.755,0.162c4.552,0,8.599-3.244,9.453-7.881c0.963-5.228-2.494-10.246-7.72-11.208l-0.749-0.138
			l14.609-79.331c0.462-2.511-0.091-5.103-1.54-7.203c-1.448-2.103-3.672-3.543-6.182-4.005l-1.516-0.279
			c7.861-13.802,17.64-31.932,18.901-38.791C512.797,71.642,511.363,64.938,507.543,59.391z M19.349,74.753
			c-0.28-1.561,0.062-3.137,0.962-4.444c0.906-1.316,2.269-2.199,3.839-2.488c3.245-0.595,6.368,1.556,6.956,4.745
			c0.382,2.672-0.485,11.623-1.931,22.54C23.95,85.447,19.958,77.407,19.349,74.753z M49.208,203.36
			c-0.027,0.005-0.054,0.007-0.081,0.012c-0.004,0.001-0.008,0.001-0.012,0.002c-0.001,0-0.002,0-0.003,0.001l-5.488,1.01
			L30.76,134.523l5.488-1.01c0.001,0,0.003,0,0.004,0s0.003-0.001,0.004-0.001l5.485-1.01l12.857,69.865L49.208,203.36z
			 M351.217,75.806c3.632-16.975,12.166-32.32,24.679-44.381c0.548-0.528,1.194-0.796,1.922-0.796c0.941,0,2.136,0.471,2.665,1.784
			c4.145,10.331,6.247,21.223,6.247,32.371c0,6.118-0.65,12.252-1.932,18.231l-13.046,60.844l-33.582-7.198L351.217,75.806z
			 M334.135,155.483l33.581,7.198l-3.554,16.574c-4.467-3.804-9.872-6.574-15.876-7.864c-6.061-1.298-12.11-0.991-17.697,0.632
			L334.135,155.483z M318.746,227.26l5.074-23.689c0.022-0.088,0.042-0.176,0.063-0.264c2.029-9.193,11.169-15.062,20.367-13.096
			c7.869,1.692,13.581,8.748,13.581,16.778c0,1.045-0.093,2.088-0.278,3.102l-5.224,24.366c0,0.001,0,0.003-0.001,0.005
			c-0.96,4.485-3.609,8.327-7.459,10.817s-8.443,3.333-12.933,2.372c-4.484-0.96-8.325-3.61-10.816-7.461
			C318.628,236.335,317.785,231.744,318.746,227.26z M312.008,258.682c4.519,3.832,9.941,6.513,15.898,7.789
			c2.564,0.549,5.143,0.821,7.704,0.821c3.389,0,6.743-0.483,9.983-1.418l-3.538,16.504l-33.584-7.198L312.008,258.682z
			 M298.079,323.644c0.008-0.039,0.016-0.076,0.024-0.114l6.332-29.53l33.585,7.198l-11.925,55.632
			c-13.107-1.693-25.314-0.062-35.743,2.851L298.079,323.644z M276.869,330.76l-8.041,37.501c-5.479,2.855-9.993,5.735-13.307,8.051
			c-3.094-2.163-7.244-4.821-12.234-7.485l-8.169-38.104C248.958,330.269,263.058,330.279,276.869,330.76z M207.56,294
			l14.143,65.968c-10.45-3.036-22.681-4.807-35.827-3.261l-11.899-55.51L207.56,294z M203.525,275.179l-33.582,7.198l-3.538-16.504
			c3.241,0.935,6.595,1.418,9.984,1.418c2.561,0,5.141-0.271,7.704-0.821c6.064-1.298,11.455-4.056,15.887-7.824L203.525,275.179z
			 M140.248,143.86l-13.046-60.844c-1.283-5.978-1.932-12.113-1.932-18.231c0-11.149,2.102-22.041,6.243-32.363
			c0.531-1.321,1.727-1.792,2.668-1.792c0.728,0,1.374,0.268,1.925,0.799c12.511,12.057,21.044,27.403,24.678,44.381l13.047,60.853
			L140.248,143.86z M144.283,162.68l33.582-7.198l3.548,16.551c-5.592-1.628-11.645-1.939-17.708-0.641
			c-6,1.29-11.402,4.058-15.868,7.861L144.283,162.68z M154.563,210.656l-0.115-0.568c-0.185-1.013-0.278-2.057-0.278-3.102
			c0-8.03,5.712-15.086,13.572-16.776c9.18-1.958,18.312,3.886,20.364,13.039c0.004,0.016,0.008,0.033,0.012,0.049l5.128,23.915
			c0.009,0.047,0.018,0.094,0.028,0.142c1.926,9.217-4,18.32-13.209,20.292c-4.49,0.961-9.082,0.118-12.932-2.372
			s-6.499-6.333-7.459-10.817c0-0.002,0-0.004-0.001-0.005L154.563,210.656z M481.68,390.131v91.241H29.357v-91.228
			c9.775-9.097,23.3-17.729,39.689-25.358l13.063,70.956l-10.294,1.895c-5.228,0.962-8.685,5.98-7.721,11.208
			c0.854,4.639,4.901,7.883,9.454,7.883c0.578,0,1.164-0.053,1.753-0.161l39.516-7.277c5.227-0.962,8.685-5.98,7.721-11.208
			c-0.962-5.229-5.978-8.682-11.208-7.722l-10.293,1.895l-13.821-75.069c21.851-8.219,47.443-14.847,74.917-19.402l5.015,23.399
			c-11.416,4.171-22.26,10.898-32.336,20.095c-3.926,3.583-4.204,9.67-0.621,13.596c3.584,3.927,9.671,4.206,13.596,0.621
			c10.271-9.373,21.334-15.544,32.889-18.34c19.764-4.792,38.079,1.068,49.969,6.828c11.316,5.471,18.482,11.603,18.563,11.673
			c1.821,1.58,4.067,2.355,6.303,2.355c1.633,0,3.259-0.419,4.711-1.234c0.002-0.001,0.005-0.002,0.007-0.004
			c0.212-0.119,0.416-0.253,0.62-0.389c0.08-0.053,0.162-0.101,0.241-0.157c0.156-0.111,0.304-0.233,0.454-0.353
			c0.092-0.074,0.189-0.14,0.279-0.217c0.075-0.065,7.652-6.551,19.545-12.141c11.859-5.587,30.123-11.192,49.781-6.158
			c11.266,2.885,22.06,8.988,32.085,18.139c1.846,1.685,4.169,2.516,6.486,2.516c2.61,0,5.212-1.056,7.111-3.136
			c3.583-3.925,3.306-10.012-0.62-13.596c-9.804-8.948-20.347-15.563-31.437-19.758l5.055-23.584
			c27.5,4.617,53.082,11.307,74.888,19.584l-13.759,74.736l-10.293-1.895c-5.227-0.958-10.246,2.495-11.208,7.722
			c-0.962,5.228,2.495,10.246,7.721,11.208l39.516,7.277c0.589,0.108,1.175,0.161,1.753,0.161c4.553,0,8.6-3.245,9.454-7.883
			c0.962-5.228-2.495-10.246-7.721-11.208l-10.294-1.895l12.989-70.554C458.837,372.699,472.046,381.179,481.68,390.131z
			 M468.376,204.384l-5.488-1.01c-0.001,0-0.002,0-0.003-0.001c-0.008-0.001-0.014-0.002-0.022-0.003
			c-0.02-0.004-0.039-0.005-0.059-0.009l-5.402-0.995l12.858-69.864l5.485,1.01c0.001,0,0.003,0.001,0.004,0.001s0.003,0,0.004,0
			l5.488,1.01L468.376,204.384z M492.652,74.752c-0.609,2.654-4.602,10.693-9.829,20.354c-1.446-10.908-2.316-19.844-1.938-22.488
			c0.53-2.878,3.052-4.898,5.88-4.898c0.358,0,0.721,0.033,1.085,0.1c1.57,0.289,2.932,1.172,3.839,2.488
			C492.589,71.616,492.931,73.192,492.652,74.752z"/>
	</g>
</g>
<g>
	<g>
		<path d="M221.819,444.947h-59.187c-5.315,0-9.624,4.31-9.624,9.624c0,5.314,4.309,9.624,9.624,9.624h59.187
			c5.315,0,9.624-4.31,9.624-9.624C231.442,449.257,227.134,444.947,221.819,444.947z"/>
	</g>
</g>
<g>
	<g>
		<path d="M247.745,444.947c-12.385,0-12.405,19.248,0,19.248C260.13,464.195,260.151,444.947,247.745,444.947z"/>
	</g>
</g>
<g>
</g>
<g>
</g>
<g>
</g>
<g>
</g>
<g>
</g>
<g>
</g>
<g>
</g>
<g>
</g>
<g>
</g>
<g>
</g>
<g>
</g>
<g>
</g>
<g>
</g>
<g>
</g>
<g>
</g>
</svg>
<svg id="icon-travel" viewBox="0 0 457.148 457.148" style="enable-background:new 0 0 457.148 457.148;">
<g>
	<path d="M452.766,4.923c-14.801-14.806-65.045,11.435-79.847,26.241l-59.28,59.284H43.984c-6.409,0-11.918,4.555-13.119,10.854
		c-1.198,6.298,2.249,12.556,8.21,14.911l178.319,70.471L108.048,296.026H4.627c-2.218,0.007-4.132,1.582-4.545,3.766
		c-0.416,2.19,0.777,4.356,2.846,5.171l87.028,34.396c0.502,2.185,1.203,4.323,2.101,6.414l-3.807,3.815
		c-5.424,5.421-5.424,14.204,0,19.631c5.417,5.424,14.217,5.424,19.634,0l3.716-3.714c2.106,0.93,4.277,1.663,6.49,2.188
		l33.545,85.971c0.808,2.074,2.979,3.272,5.167,2.867c0.941-0.169,1.774-0.635,2.415-1.279c0.847-0.836,1.355-1.998,1.355-3.273
		V350.736l111.08-111.076l69.807,178.907c2.336,5.976,8.597,9.45,14.905,8.268c2.726-0.514,5.122-1.833,6.972-3.67
		c2.436-2.447,3.912-5.802,3.92-9.458V144.059l59.281-59.283C441.333,69.971,467.567,19.727,452.766,4.923z"/>
</g>
<g>
</g>
<g>
</g>
<g>
</g>
<g>
</g>
<g>
</g>
<g>
</g>
<g>
</g>
<g>
</g>
<g>
</g>
<g>
</g>
<g>
</g>
<g>
</g>
<g>
</g>
<g>
</g>
<g>
</g>
</svg>
<svg id="icon-me" enable-background="new 0 0 511.864 511.864" viewBox="0 0 511.864 511.864"><g><g><path d="m387.779 392.036-61.848-11.63v-31.705c0-3.511-1.811-6.597-4.547-8.381 5.478-3.589 10.696-7.644 15.595-12.146 20.062-18.436 33.166-42.797 37.428-69.292 21.207-4.397 35.869-26.779 30.447-48.25 27.52-19.13 27.993-61.27.89-80.912 13.481-30.121-7.325-66.146-40.143-69.528-1.807-15.498-10.816-29.555-24.67-37.554-13.855-7.999-30.533-8.771-44.857-2.588-19.346-26.736-60.945-26.728-80.285 0-14.325-6.184-31.004-5.41-44.857 2.588-13.854 7.999-22.863 22.056-24.67 37.554-15.498 1.807-29.555 10.816-37.554 24.67s-8.772 30.532-2.589 44.857c-27.112 19.649-26.622 61.789.89 80.913-5.42 21.474 9.24 43.851 30.448 48.249 5.122 32.857 24.891 63.156 53.023 81.439-2.737 1.784-4.548 4.87-4.548 8.381v31.705l-61.848 11.63c-41.4 7.785-68.151 35.194-68.151 69.828v40c0 5.523 4.477 10 10 10h379.998c5.523 0 10-4.477 10-10v-40c0-34.635-26.751-62.043-68.152-69.828zm-181.847-13.335v-20h30c5.514 0 10 4.486 10 10v10zm60-10c0-5.514 4.486-10 10-10h30v20h-40zm-160-198.839c0-11.815 6.972-22.571 17.763-27.399 2.748-1.23 4.795-3.632 5.574-6.54s.207-6.012-1.558-8.451c-6.93-9.577-7.591-22.377-1.683-32.61 5.908-10.232 17.333-16.063 29.083-14.848 2.995.304 5.969-.748 8.098-2.876 2.128-2.129 3.185-5.103 2.876-8.098-1.213-11.759 4.615-23.175 14.848-29.083 10.232-5.907 23.033-5.247 32.61 1.684 2.438 1.765 5.542 2.337 8.451 1.558 2.908-.779 5.31-2.827 6.539-5.574 10.418-23.533 44.388-23.524 54.8 0 1.229 2.748 3.631 4.795 6.539 5.574 2.907.778 6.012.207 8.451-1.558 9.577-6.931 22.377-7.591 32.61-1.684 10.232 5.908 16.061 17.324 14.848 29.083-.309 2.995.748 5.969 2.876 8.098 2.129 2.129 5.104 3.183 8.098 2.876 11.754-1.217 23.175 4.615 29.083 14.848 5.907 10.232 5.247 23.033-1.684 32.61-1.765 2.439-2.337 5.543-1.558 8.451s2.827 5.31 5.574 6.54c20.078 8.783 23.882 36.345 7.138 50.283-5.137-5.56-11.827-9.666-19.375-11.615v-6.266c0-5.526-4.484-10.007-10.011-10-10.285-.004-19.665-6.458-23.344-16.061-1.13-2.948-3.585-5.19-6.625-6.047-3.037-.856-6.304-.229-8.807 1.695-12.088 9.652-31.272 5.153-37.726-8.949-1.404-2.896-4.115-4.938-7.286-5.49-3.17-.552-6.412.458-8.71 2.709-9.278 9.46-25.706 9.459-34.984 0-2.299-2.252-5.542-3.261-8.71-2.709-3.17.551-5.882 2.594-7.286 5.49-6.455 14.103-25.638 18.601-37.726 8.949-2.503-1.924-5.769-2.551-8.807-1.695-3.039.857-5.495 3.099-6.624 6.047-3.679 9.604-13.06 16.057-23.345 16.061-5.527-.007-10.012 4.474-10.011 10v6.266c-7.549 1.95-14.238 6.056-19.376 11.616-6.613-5.633-10.623-14-10.623-22.885zm50.421 79.094c-.47-5.149-4.788-9.091-9.958-9.091-11.475 0-20.463-8.785-20.463-20 0-11.028 8.972-20 20-20 5.523 0 10-4.478 10-10v-6.147c10.655-2.463 20.137-8.767 26.533-17.608 17.377 7.64 39.273 2.353 51.423-11.998 13.199 7.634 30.887 7.633 44.086 0 12.149 14.35 34.048 19.637 51.423 11.997 6.396 8.841 15.878 15.145 26.534 17.608v6.148c0 5.523 4.477 10 10 10 26.65 1.114 26.572 39.275-.463 40-5.171 0-9.489 3.942-9.958 9.091-15.171 120.519-184.032 120.429-199.157 0zm-80.42 212.908c0-29.803 26.783-45.459 51.848-50.172l69.083-12.99h49.068v29.998c0 2.729 1.115 5.34 3.087 7.226l17.821 17.047v38.891h-115.908v-10c-.528-13.268-19.477-13.258-20 0v10h-54.999zm359.998 30h-54.999v-10c-.528-13.268-19.477-13.258-20 0v10h-74.091v-43.164c0-2.729-1.115-5.34-3.087-7.227l-17.821-17.047v-25.726h49.067l69.083 12.99c25.065 4.713 51.848 20.369 51.848 50.172z"/><path d="m215.934 209.865h-.007c-5.523 0-9.997 4.477-9.997 10 .528 13.263 19.479 13.263 20.004 0 0-5.523-4.477-10-10-10z"/><path d="m295.937 229.865c13.268-.528 13.258-19.477 0-20h-.007c-13.269.529-13.251 19.478.007 20z"/><path d="m271.758 278.197c11.576-.211 13.829-16.387 2.583-19.662-12-3.217-24.819-3.216-36.818 0-5.334 1.43-8.5 6.914-7.07 12.249s6.916 8.5 12.249 7.07c8.622-2.312 17.836-2.313 26.46 0 .867.232 1.739.343 2.596.343z"/><path d="m185.935 110.533c13.268-.528 13.258-19.477 0-20h-.007c-13.269.529-13.251 19.478.007 20z"/></g></g></svg>
<svg id="icon-powerlifting" viewBox="0 0 471.478 471.478">
<g>
	<path d="M71.874,52.873c-5.522,0-10,4.477-10,10v109.495c0,5.523,4.478,10,10,10s10-4.477,10-10V62.873
		C81.874,57.35,77.396,52.873,71.874,52.873z"/>
	<path d="M46.717,70.096c-5.522,0-10,4.477-10,10v27.523H10c-5.522,0-10,4.477-10,10s4.478,10,10,10h26.717v27.523
		c0,5.523,4.478,10,10,10s10-4.477,10-10V80.096C56.717,74.573,52.239,70.096,46.717,70.096z"/>
	<path d="M399.604,52.873c-5.522,0-10,4.477-10,10v109.495c0,5.523,4.478,10,10,10s10-4.477,10-10V62.873
		C409.604,57.35,405.126,52.873,399.604,52.873z"/>
	<path d="M374.446,52.873c-5.522,0-10,4.477-10,10v44.747h-12.213V90.621c0-5.523-4.478-10-10-10s-10,4.477-10,10v16.999H139.244
		V90.621c0-5.523-4.478-10-10-10s-10,4.477-10,10v16.999h-12.212V62.873c0-5.523-4.478-10-10-10s-10,4.477-10,10v109.495
		c0,5.523,4.478,10,10,10s10-4.477,10-10V127.62h12.212v270.985h-11.749c-5.522,0-10,4.477-10,10s4.478,10,10,10h43.498
		c5.522,0,10-4.477,10-10s-4.478-10-10-10h-11.749V127.62h192.989v270.985h-11.749c-5.522,0-10,4.477-10,10s4.478,10,10,10h43.498
		c5.522,0,10-4.477,10-10s-4.478-10-10-10h-11.749V127.62h12.213v44.748c0,5.523,4.478,10,10,10s10-4.477,10-10V62.873
		C384.446,57.35,379.969,52.873,374.446,52.873z"/>
	<path d="M461.478,107.62h-26.717V80.096c0-5.523-4.478-10-10-10s-10,4.477-10,10v75.047c0,5.523,4.478,10,10,10s10-4.477,10-10
		V127.62h26.717c5.522,0,10-4.477,10-10S467,107.62,461.478,107.62z"/>
</g>
<g>
</g>
<g>
</g>
<g>
</g>
<g>
</g>
<g>
</g>
<g>
</g>
<g>
</g>
<g>
</g>
<g>
</g>
<g>
</g>
<g>
</g>
<g>
</g>
<g>
</g>
<g>
</g>
<g>
</g>
</svg>
<svg id="icon-soccer" viewBox="0 0 952.1 952.1">
<g>
	<g>
		<path d="M812.55,139.4c-43.7-43.7-94.6-78-151.3-102C602.55,12.6,540.25,0,475.95,0c-64.2,0.1-126.5,12.6-185.2,37.5
			c-56.7,24-107.6,58.3-151.3,102c-43.7,43.7-78,94.6-102,151.3c-24.8,58.7-37.4,121-37.4,185.3c0,64.201,12.6,126.6,37.4,185.301
			c24,56.699,58.3,107.6,102,151.299c43.7,43.701,94.6,78,151.3,102c58.7,24.801,121,37.4,185.3,37.4
			c64.2,0,126.601-12.6,185.3-37.4c56.7-24,107.601-58.299,151.301-102c43.699-43.699,78-94.6,102-151.299
			c24.8-58.701,37.399-121,37.399-185.301c0-64.2-12.6-126.6-37.399-185.3C890.55,234,856.25,183.2,812.55,139.4z M212.55,107.5
			c4.3-3.3,8.5-6.8,12.9-9.9c23.1-16.2,48.7-29.3,74.7-40.2C355.55,34.2,415.75,22,475.95,22c40.1,0,81.2,5.4,119.899,16
			c-15.3,6.2-34,18-65.399,44.8c-26.101-2.8-52.5-2.9-79-0.4c-34.601,3.3-69.4,11-103.4,23c-30.7,10.8-55,23.1-71.4,32.5
			c-25.1-9-57.5-19.6-73.5-24.8C205.65,113.9,210.85,108.8,212.55,107.5z M646.15,226.5l-81.4,222.2l-195.3,37.5L208.05,319.5
			c10.9-75.6,62.7-142.6,62.7-142.6c0.3-0.2,34.1-24.6,88.3-43.5c31.601-11.1,63.8-18.2,95.9-21.2c26.2-2.4,52.3-2,78.1,1.1
			L646.15,226.5z M39.35,460.2c-5,32.3-6.1,65.8-3.5,99.5c-3.9-7.799-7-14.398-9.3-19.699c-3-20.9-4.5-42.301-4.5-64.1
			c0-67,14.5-130.7,40.6-188c-2.9,30-1.5,61.1,0.6,84.7C52.05,400.7,44.05,430,39.35,460.2z M78.85,633.301
			c-4.6-16.9-10-41.5-12.7-71c-3-33.301-2.1-66.4,2.9-98.101c3.8-24.3,9.9-47.899,18.3-70.6c32.9-27.8,76.5-44.1,100.6-51.6
			L346.35,505.6L329.75,684.9L174.95,736.6C135.55,707.6,103.35,669.199,78.85,633.301z M549.25,892.9
			c-34.5,22.6-121.7,28-157.1,29.299c-39-7.299-76.9-19.799-112.601-37c-31.2-15-60.8-33.6-87.8-55.398c0.5-0.9-4.2-48.602-4-66
			l156.4-52.201l180.5,78.1l24.899,102.9C549.35,892.801,549.25,892.9,549.25,892.9z M849.15,734.6
			C822.25,773.4,790.05,809.5,751.35,836.9c-36.3,25.6-84.899,34.4-128.1,41.5c-3.3,0.5-44.6,7.299-44.9,5.9l-24.899-103L680.55,649
			l168.3-15.5c2.601,26.801,6,65.9,8,89.801C854.25,727.1,851.75,730.9,849.15,734.6z M851.75,600c-0.6,1-1.2,2.1-1.8,3.301
			L682.35,618.699L592.15,460.9l81.6-222.7l115.2,7.3c24.5,20.5,46.2,43.3,64.6,67.9c23,30.9,40.9,64.8,53.101,100.7
			C893.85,525.301,864.35,580.699,851.75,600z M911.85,349.8c-9.899-19.1-21.5-37.5-34.6-55c-20.7-27.7-45.3-53.2-73.2-75.9
			c-5.1-25.3-19.1-65.1-56.7-106.9c0.7,0.5,1.4,1.1,2.101,1.6c2.3,1.7,4.5,3.5,6.8,5.2c25.9,20.4,49.5,43.5,70.4,68.9
			c38.8,47.3,68.1,102.2,85.3,161.1C911.85,349.2,911.85,349.5,911.85,349.8z"/>
	</g>
</g>
<g>
</g>
<g>
</g>
<g>
</g>
<g>
</g>
<g>
</g>
<g>
</g>
<g>
</g>
<g>
</g>
<g>
</g>
<g>
</g>
<g>
</g>
<g>
</g>
<g>
</g>
<g>
</g>
<g>
</g>
</svg>
<svg id="icon-new-tab" xmlns="http://www.w3.org/2000/svg"  viewBox="0 0 50 50"><path d="M 33.40625 0 C 32.855469 0.0507813 32.449219 0.542969 32.5 1.09375 C 32.550781 1.644531 33.042969 2.050781 33.59375 2 L 46.5625 2 L 25.6875 22.90625 C 25.390625 23.148438 25.253906 23.535156 25.339844 23.910156 C 25.425781 24.28125 25.71875 24.574219 26.089844 24.660156 C 26.464844 24.746094 26.851563 24.609375 27.09375 24.3125 L 48 3.4375 L 48 16.40625 C 47.996094 16.765625 48.183594 17.101563 48.496094 17.285156 C 48.808594 17.464844 49.191406 17.464844 49.503906 17.285156 C 49.816406 17.101563 50.003906 16.765625 50 16.40625 L 50 0 L 33.59375 0 C 33.5625 0 33.53125 0 33.5 0 C 33.46875 0 33.4375 0 33.40625 0 Z M 2 10 C 1.476563 10 0.941406 10.183594 0.5625 10.5625 C 0.183594 10.941406 0 11.476563 0 12 L 0 48 C 0 48.523438 0.183594 49.058594 0.5625 49.4375 C 0.941406 49.816406 1.476563 50 2 50 L 38 50 C 38.523438 50 39.058594 49.816406 39.4375 49.4375 C 39.816406 49.058594 40 48.523438 40 48 L 40 18 C 40.003906 17.640625 39.816406 17.304688 39.503906 17.121094 C 39.191406 16.941406 38.808594 16.941406 38.496094 17.121094 C 38.183594 17.304688 37.996094 17.640625 38 18 L 38 48 L 2 48 L 2 12 L 32 12 C 32.359375 12.003906 32.695313 11.816406 32.878906 11.503906 C 33.058594 11.191406 33.058594 10.808594 32.878906 10.496094 C 32.695313 10.183594 32.359375 9.996094 32 10 Z"/></svg>
<svg version="1.1" id="icon-video" xmlns="http://www.w3.org/2000/svg" xmlns:xlink="http://www.w3.org/1999/xlink" viewBox="0 0 55.125 55.125" xml:space="preserve">
<g>
	<g>
		<path d="M4.167,47.007h46.792c2.302,0,4.167-1.866,4.167-4.167V12.285c0-2.301-1.865-4.167-4.167-4.167H4.167
			C1.866,8.118,0,9.984,0,12.285V42.84C0,45.141,1.866,47.007,4.167,47.007z M30.771,44.082h-6.418v-3.965h6.418V44.082z
			 M46.065,11.138h6.418v3.965h-6.418V11.138z M45.875,40.117h6.419v3.965h-6.419V40.117z M35.303,11.138h6.419v3.965h-6.419V11.138
			z M35.114,40.117h6.419v3.965h-6.419V40.117z M24.543,11.138h6.418v3.965h-6.418V11.138z M22.743,20.717l9.639,4.82
			c2.237,1.119,2.237,2.933,0,4.051l-9.639,4.821c-2.237,1.118-4.052-0.003-4.052-2.506v-8.681
			C18.69,20.72,20.505,19.599,22.743,20.717z M13.782,11.138h6.419v3.965h-6.419V11.138z M13.593,40.117h6.418v3.965h-6.418V40.117z
			 M3.021,11.138h6.419v3.965H3.021V11.138z M2.832,40.117h6.419v3.965H2.832V40.117z"/>
	</g>
</g>
<g>
</g>
<g>
</g>
<g>
</g>
<g>
</g>
<g>
</g>
<g>
</g>
<g>
</g>
<g>
</g>
<g>
</g>
<g>
</g>
<g>
</g>
<g>
</g>
<g>
</g>
<g>
</g>
<g>
</g>
</svg>
</svg>
