<?xml version="1.0" encoding="utf-8"?>
<!-- Generated by IcoMoon.io -->
<svg version="1.1" xmlns="http://www.w3.org/2000/svg" xmlns:xlink="http://www.w3.org/1999/xlink" width="560" height="20" viewBox="0 0 560 20">
<svg id="icon-mail" viewBox="0 0 20 20">
<path d="M1.574 5.286c0.488 0.262 7.248 3.894 7.5 4.029s0.578 0.199 0.906 0.199c0.328 0 0.654-0.064 0.906-0.199s7.012-3.767 7.5-4.029c0.489-0.263 0.951-1.286 0.054-1.286h-16.919c-0.897 0-0.435 1.023 0.053 1.286zM18.613 7.489c-0.555 0.289-7.387 3.849-7.727 4.027s-0.578 0.199-0.906 0.199-0.566-0.021-0.906-0.199-7.133-3.739-7.688-4.028c-0.39-0.204-0.386 0.035-0.386 0.219s0 7.293 0 7.293c0 0.42 0.566 1 1 1h16c0.434 0 1-0.58 1-1 0 0 0-7.108 0-7.292s0.004-0.423-0.387-0.219z"></path>
</svg>
<svg id="icon-menu" viewBox="0 0 20 20">
<path d="M16.4 9h-12.8c-0.552 0-0.6 0.447-0.6 1s0.048 1 0.6 1h12.8c0.552 0 0.6-0.447 0.6-1s-0.048-1-0.6-1zM16.4 13h-12.8c-0.552 0-0.6 0.447-0.6 1s0.048 1 0.6 1h12.8c0.552 0 0.6-0.447 0.6-1s-0.048-1-0.6-1zM3.6 7h12.8c0.552 0 0.6-0.447 0.6-1s-0.048-1-0.6-1h-12.8c-0.552 0-0.6 0.447-0.6 1s0.048 1 0.6 1z"></path>
</svg>
<svg id="icon-instagram" viewBox="0 0 20 20">
<path d="M17 1h-14c-1.1 0-2 0.9-2 2v14c0 1.101 0.9 2 2 2h14c1.1 0 2-0.899 2-2v-14c0-1.1-0.9-2-2-2zM9.984 15.523c3.059 0 5.538-2.481 5.538-5.539 0-0.338-0.043-0.664-0.103-0.984h1.581v7.216c0 0.382-0.31 0.69-0.693 0.69h-12.614c-0.383 0-0.693-0.308-0.693-0.69v-7.216h1.549c-0.061 0.32-0.104 0.646-0.104 0.984 0 3.059 2.481 5.539 5.539 5.539zM6.523 9.984c0-1.912 1.55-3.461 3.462-3.461s3.462 1.549 3.462 3.461-1.551 3.462-3.462 3.462c-1.913 0-3.462-1.55-3.462-3.462zM16.307 6h-1.615c-0.382 0-0.692-0.312-0.692-0.692v-1.617c0-0.382 0.31-0.691 0.691-0.691h1.615c0.384 0 0.694 0.309 0.694 0.691v1.616c0 0.381-0.31 0.693-0.693 0.693z"></path>
</svg>
<svg id="icon-linkedin" viewBox="0 0 20 20">
<path d="M5 3c0 1.062-0.71 1.976-2.001 1.976-1.215 0-1.999-0.862-1.999-1.924 0-1.090 0.76-2.052 2-2.052s1.976 0.91 2 2zM1 19v-13h4v13h-4z"></path>
<path d="M7 10.444c0-1.545-0.051-2.836-0.102-3.951h3.594l0.178 1.723h0.076c0.506-0.811 1.746-2 3.822-2 2.532 0 4.432 1.695 4.432 5.342v7.442h-4v-6.861c0-1.594-0.607-2.81-2-2.81-1.062 0-1.594 0.86-1.873 1.569-0.102 0.254-0.127 0.608-0.127 0.963v7.139h-4v-8.556z"></path>
</svg>
<svg id="icon-github" viewBox="0 0 32 32">
<path d="M16 0.395c-8.836 0-16 7.163-16 16 0 7.069 4.585 13.067 10.942 15.182 0.8 0.148 1.094-0.347 1.094-0.77 0-0.381-0.015-1.642-0.022-2.979-4.452 0.968-5.391-1.888-5.391-1.888-0.728-1.849-1.776-2.341-1.776-2.341-1.452-0.993 0.11-0.973 0.11-0.973 1.606 0.113 2.452 1.649 2.452 1.649 1.427 2.446 3.743 1.739 4.656 1.33 0.143-1.034 0.558-1.74 1.016-2.14-3.554-0.404-7.29-1.777-7.29-7.907 0-1.747 0.625-3.174 1.649-4.295-0.166-0.403-0.714-2.030 0.155-4.234 0 0 1.344-0.43 4.401 1.64 1.276-0.355 2.645-0.532 4.005-0.539 1.359 0.006 2.729 0.184 4.008 0.539 3.054-2.070 4.395-1.64 4.395-1.64 0.871 2.204 0.323 3.831 0.157 4.234 1.026 1.12 1.647 2.548 1.647 4.295 0 6.145-3.743 7.498-7.306 7.895 0.574 0.497 1.085 1.47 1.085 2.963 0 2.141-0.019 3.864-0.019 4.391 0 0.426 0.288 0.925 1.099 0.768 6.354-2.118 10.933-8.113 10.933-15.18 0-8.837-7.164-16-16-16z"></path>
</svg>
<svg id="icon-moto" viewBox="0 -76 512 512">
<path d="m437 210c-12.289062 0-23.726562 3.253906-33.972656 8.515625l-20.273438-24.09375c8.988282-5.3125 18.710938-9.398437 28.988282-11.699219 8.378906-1.886718 16.683593-2.578125 25.339843-2.707031 11.179688.085937 22.179688-4.324219 30.410157-12.480469 8.585937-8.496094 13.507812-20.316406 13.507812-34.292968 0-76.824219-64.71875-133.242188-133.050781-133.242188h-16.949219c-8.289062 0-15 6.710938-15 15s6.710938 15 15 15h16.949219c4.46875 0 8.730469.769531 13.050781 1.324219v28.984375c-8.710938.789062-16.914062 3.484375-24.675781 7.097656-.097657-.113281-.222657-.1875-.316407-.300781-12.3125 5.757812-22.925781 14.761719-30.613281 26.292969l-34.144531 51.210937c-2.34375 3.5-6.035156 5.859375-10.210938 6.503906-30.367187 4.667969-56.691406 24.027344-70.515624 52.296875 12.8125 19.148438 20.476562 41.960938 20.476562 66.589844h-31c0-49.628906-40.371094-90-90-90s-90 40.371094-90 90 40.371094 90 90 90c39.058594 0 72.046875-25.15625 84.472656-60h141.527344c8.289062 0 15-6.710938 15-15 0-8.335938.996094-16.847656 2.945312-25.28125 4.085938-17.515625 13.195313-33.457031 25.421876-46.480469l20.246093 24.058594c-10.832031 13.003906-17.613281 29.496094-17.613281 47.703125 0 41.351562 33.648438 75 75 75s75-33.648438 75-75-33.648438-75-75-75zm-347 120c-33.089844 0-60-26.910156-60-60s26.910156-60 60-60 60 26.910156 60 60h-45c-8.277344 0-15-6.722656-15-15 0-8.289062-6.710938-15-15-15s-15 6.710938-15 15c0 24.8125 20.1875 45 45 45h36.65625c-10.40625 17.847656-29.542969 30-51.65625 30zm347 0c-24.8125 0-45-20.1875-45-45 0-8.691406 2.589844-16.742188 6.875-23.632812l26.40625 33.007812c5.214844 6.503906 14.660156 7.484375 21.09375 2.34375 6.460938-5.1875 7.515625-14.617188 2.34375-21.09375l-26.375-32.96875c4.617188-1.605469 9.496094-2.65625 14.65625-2.65625 24.8125 0 45 20.1875 45 45s-20.1875 45-45 45zm0 0"/><path d="m254.734375 115.308594 25.699219-38.550782c8.214844-12.328124 18.988281-22.34375 31.226562-30.121093-16.460937-10.394531-35.4375-16.636719-55.660156-16.636719-35.441406 0-68.179688 18.066406-87.449219 47.039062l23.992188 14.398438c19.273437 11.5625 40.378906 19.304688 62.191406 23.871094zm0 0"/><path d="m177.105469 117.15625-96.257813-57.15625h-65.847656c-8.289062 0-15 6.710938-15 15 0 41.351562 33.648438 75 75 75 30.003906 0 61.128906.652344 94.476562 29.640625.128907-.238281.128907-.507813.273438-.738281 11.636719-18.710938 28.066406-33.21875 46.902344-43.414063-13.636719-4.988281-26.988282-10.800781-39.546875-18.332031zm0 0"/>
</svg>
<svg id="icon-headphones" viewBox="0 0 47 47">
<g>
	<path d="M40.508,25.355h-0.311v-1.58c0.738-0.428,1.238-1.216,1.238-2.13c0-9.888-8.045-17.934-17.935-17.934
		c-9.889,0-17.935,8.046-17.935,17.935c0,0.914,0.5,1.702,1.237,2.131v1.58h-0.31C2.913,25.357,0,28.685,0,32.775v2.477
		c0,4.092,2.913,7.42,6.493,7.42h2.89l0.256,0.256c0.241,0.241,0.558,0.362,0.874,0.362c0.317,0,0.634-0.121,0.875-0.362
		c0.285-0.285,0.382-0.673,0.33-1.044c0.214-0.302,0.342-0.669,0.342-1.067V27.21c0-1.025-0.831-1.855-1.855-1.855H9.277v-1.58
		c0.736-0.428,1.236-1.216,1.236-2.13c0-7.161,5.826-12.987,12.987-12.987s12.986,5.826,12.986,12.987c0,0.914,0.5,1.702,1.236,2.13
		v1.58h-0.928c-1.023,0-1.855,0.83-1.855,1.855v13.605c0,0.397,0.129,0.766,0.342,1.066c-0.051,0.371,0.046,0.758,0.33,1.044
		c0.242,0.241,0.559,0.362,0.875,0.362s0.634-0.121,0.875-0.362l0.256-0.256h2.89c3.58,0,6.493-3.328,6.493-7.42v-2.476
		C47.001,28.685,44.088,25.355,40.508,25.355z"/>
</g>
<g>
</g>
<g>
</g>
<g>
</g>
<g>
</g>
<g>
</g>
<g>
</g>
<g>
</g>
<g>
</g>
<g>
</g>
<g>
</g>
<g>
</g>
<g>
</g>
<g>
</g>
<g>
</g>
<g>
</g>
</svg>
<svg id="icon-ball" viewBox="0 0 77.832 77.832">
<g>
	<path d="M38.916,0C17.458,0,0,17.458,0,38.916c0,2.489,0.245,4.923,0.693,7.284l-0.146,0.175c0.07,0.059,0.138,0.109,0.208,0.167
		c3.555,17.819,19.312,31.29,38.161,31.29c21.458,0,38.916-17.458,38.916-38.916S60.374,0,38.916,0z M72.061,25.249
		c-0.052,12.625-11.312,15.317-16.045,15.888c3.945-13.604,2.821-26.663,1.959-32.572C64.236,12.512,69.199,18.337,72.061,25.249z
		 M54.559,6.658c0.653,3.375,3.119,18.577-1.675,34.318c-9.122-2.418-10.416-9.061-12.143-18.104
		c-1.169-6.126-2.491-12.99-6.694-19.474c1.594-0.217,3.217-0.339,4.869-0.339C44.521,3.059,49.829,4.354,54.559,6.658z
		 M30.764,4.005c4.453,6.291,5.793,13.262,6.973,19.441c1.714,8.979,3.346,17.479,14.175,20.446
		c-0.799,2.201-1.749,4.398-2.877,6.562c-22.46-10.88-36.241-28.358-39.237-32.423C14.786,11.094,22.187,6.007,30.764,4.005z
		 M8.018,20.751c4.195,5.486,17.939,21.856,39.521,32.371c-0.844,1.407-1.773,2.791-2.789,4.147
		c-5.908-2.934-11.457-3.388-16.834-3.826c-7.44-0.607-15.128-1.256-24.354-8.571c-0.326-1.938-0.504-3.926-0.504-5.956
		C3.059,32.29,4.872,26.083,8.018,20.751z M4.647,49.475c8.612,5.83,15.922,6.438,23.021,7.018c5.113,0.417,9.972,0.82,15.12,3.232
		c-4.148,4.854-9.563,9.235-16.591,12.709C15.932,68.525,7.908,60.038,4.647,49.475z M30.319,73.725
		c6.382-3.564,11.38-7.873,15.283-12.574c1.639,0.906,4.851,3.021,5.688,6.066c0.497,1.805,0.046,3.756-1.312,5.803
		c-3.485,1.133-7.201,1.754-11.061,1.754C35.953,74.773,33.074,74.405,30.319,73.725z M54.134,71.374
		c0.507-1.685,0.552-3.351,0.101-4.983c-1.068-3.863-4.598-6.434-6.729-7.677c1.028-1.403,1.967-2.833,2.823-4.284
		c5.354,2.402,11.157,4.416,17.387,5.82C64.193,64.993,59.529,68.834,54.134,71.374z M69.557,57.523
		c-6.373-1.342-12.293-3.354-17.74-5.776c1.27-2.456,2.322-4.952,3.191-7.446c2.686-0.195,10.21-1.199,15.299-6.387
		c1.709-1.742,2.957-3.786,3.758-6.096c0.463,2.295,0.709,4.668,0.709,7.098C74.773,45.725,72.865,52.096,69.557,57.523z"/>
</g>
<g>
</g>
<g>
</g>
<g>
</g>
<g>
</g>
<g>
</g>
<g>
</g>
<g>
</g>
<g>
</g>
<g>
</g>
<g>
</g>
<g>
</g>
<g>
</g>
<g>
</g>
<g>
</g>
<g>
</g>
</svg>
<svg id="icon-powerlifting" viewBox="0 0 471.478 471.478">
<g>
	<path d="M71.874,52.873c-5.522,0-10,4.477-10,10v109.495c0,5.523,4.478,10,10,10s10-4.477,10-10V62.873
		C81.874,57.35,77.396,52.873,71.874,52.873z"/>
	<path d="M46.717,70.096c-5.522,0-10,4.477-10,10v27.523H10c-5.522,0-10,4.477-10,10s4.478,10,10,10h26.717v27.523
		c0,5.523,4.478,10,10,10s10-4.477,10-10V80.096C56.717,74.573,52.239,70.096,46.717,70.096z"/>
	<path d="M399.604,52.873c-5.522,0-10,4.477-10,10v109.495c0,5.523,4.478,10,10,10s10-4.477,10-10V62.873
		C409.604,57.35,405.126,52.873,399.604,52.873z"/>
	<path d="M374.446,52.873c-5.522,0-10,4.477-10,10v44.747h-12.213V90.621c0-5.523-4.478-10-10-10s-10,4.477-10,10v16.999H139.244
		V90.621c0-5.523-4.478-10-10-10s-10,4.477-10,10v16.999h-12.212V62.873c0-5.523-4.478-10-10-10s-10,4.477-10,10v109.495
		c0,5.523,4.478,10,10,10s10-4.477,10-10V127.62h12.212v270.985h-11.749c-5.522,0-10,4.477-10,10s4.478,10,10,10h43.498
		c5.522,0,10-4.477,10-10s-4.478-10-10-10h-11.749V127.62h192.989v270.985h-11.749c-5.522,0-10,4.477-10,10s4.478,10,10,10h43.498
		c5.522,0,10-4.477,10-10s-4.478-10-10-10h-11.749V127.62h12.213v44.748c0,5.523,4.478,10,10,10s10-4.477,10-10V62.873
		C384.446,57.35,379.969,52.873,374.446,52.873z"/>
	<path d="M461.478,107.62h-26.717V80.096c0-5.523-4.478-10-10-10s-10,4.477-10,10v75.047c0,5.523,4.478,10,10,10s10-4.477,10-10
		V127.62h26.717c5.522,0,10-4.477,10-10S467,107.62,461.478,107.62z"/>
</g>
<g>
</g>
<g>
</g>
<g>
</g>
<g>
</g>
<g>
</g>
<g>
</g>
<g>
</g>
<g>
</g>
<g>
</g>
<g>
</g>
<g>
</g>
<g>
</g>
<g>
</g>
<g>
</g>
<g>
</g>
</svg>
<svg id="icon-soccer" viewBox="0 0 952.1 952.1">
<g>
	<g>
		<path d="M812.55,139.4c-43.7-43.7-94.6-78-151.3-102C602.55,12.6,540.25,0,475.95,0c-64.2,0.1-126.5,12.6-185.2,37.5
			c-56.7,24-107.6,58.3-151.3,102c-43.7,43.7-78,94.6-102,151.3c-24.8,58.7-37.4,121-37.4,185.3c0,64.201,12.6,126.6,37.4,185.301
			c24,56.699,58.3,107.6,102,151.299c43.7,43.701,94.6,78,151.3,102c58.7,24.801,121,37.4,185.3,37.4
			c64.2,0,126.601-12.6,185.3-37.4c56.7-24,107.601-58.299,151.301-102c43.699-43.699,78-94.6,102-151.299
			c24.8-58.701,37.399-121,37.399-185.301c0-64.2-12.6-126.6-37.399-185.3C890.55,234,856.25,183.2,812.55,139.4z M212.55,107.5
			c4.3-3.3,8.5-6.8,12.9-9.9c23.1-16.2,48.7-29.3,74.7-40.2C355.55,34.2,415.75,22,475.95,22c40.1,0,81.2,5.4,119.899,16
			c-15.3,6.2-34,18-65.399,44.8c-26.101-2.8-52.5-2.9-79-0.4c-34.601,3.3-69.4,11-103.4,23c-30.7,10.8-55,23.1-71.4,32.5
			c-25.1-9-57.5-19.6-73.5-24.8C205.65,113.9,210.85,108.8,212.55,107.5z M646.15,226.5l-81.4,222.2l-195.3,37.5L208.05,319.5
			c10.9-75.6,62.7-142.6,62.7-142.6c0.3-0.2,34.1-24.6,88.3-43.5c31.601-11.1,63.8-18.2,95.9-21.2c26.2-2.4,52.3-2,78.1,1.1
			L646.15,226.5z M39.35,460.2c-5,32.3-6.1,65.8-3.5,99.5c-3.9-7.799-7-14.398-9.3-19.699c-3-20.9-4.5-42.301-4.5-64.1
			c0-67,14.5-130.7,40.6-188c-2.9,30-1.5,61.1,0.6,84.7C52.05,400.7,44.05,430,39.35,460.2z M78.85,633.301
			c-4.6-16.9-10-41.5-12.7-71c-3-33.301-2.1-66.4,2.9-98.101c3.8-24.3,9.9-47.899,18.3-70.6c32.9-27.8,76.5-44.1,100.6-51.6
			L346.35,505.6L329.75,684.9L174.95,736.6C135.55,707.6,103.35,669.199,78.85,633.301z M549.25,892.9
			c-34.5,22.6-121.7,28-157.1,29.299c-39-7.299-76.9-19.799-112.601-37c-31.2-15-60.8-33.6-87.8-55.398c0.5-0.9-4.2-48.602-4-66
			l156.4-52.201l180.5,78.1l24.899,102.9C549.35,892.801,549.25,892.9,549.25,892.9z M849.15,734.6
			C822.25,773.4,790.05,809.5,751.35,836.9c-36.3,25.6-84.899,34.4-128.1,41.5c-3.3,0.5-44.6,7.299-44.9,5.9l-24.899-103L680.55,649
			l168.3-15.5c2.601,26.801,6,65.9,8,89.801C854.25,727.1,851.75,730.9,849.15,734.6z M851.75,600c-0.6,1-1.2,2.1-1.8,3.301
			L682.35,618.699L592.15,460.9l81.6-222.7l115.2,7.3c24.5,20.5,46.2,43.3,64.6,67.9c23,30.9,40.9,64.8,53.101,100.7
			C893.85,525.301,864.35,580.699,851.75,600z M911.85,349.8c-9.899-19.1-21.5-37.5-34.6-55c-20.7-27.7-45.3-53.2-73.2-75.9
			c-5.1-25.3-19.1-65.1-56.7-106.9c0.7,0.5,1.4,1.1,2.101,1.6c2.3,1.7,4.5,3.5,6.8,5.2c25.9,20.4,49.5,43.5,70.4,68.9
			c38.8,47.3,68.1,102.2,85.3,161.1C911.85,349.2,911.85,349.5,911.85,349.8z"/>
	</g>
</g>
<g>
</g>
<g>
</g>
<g>
</g>
<g>
</g>
<g>
</g>
<g>
</g>
<g>
</g>
<g>
</g>
<g>
</g>
<g>
</g>
<g>
</g>
<g>
</g>
<g>
</g>
<g>
</g>
<g>
</g>
</svg>
</svg>
